<?xml version="1.0" encoding="UTF-8" standalone="no"?>
<!DOCTYPE svg PUBLIC "-//W3C//DTD SVG 1.1//EN"
 "http://www.w3.org/Graphics/SVG/1.1/DTD/svg11.dtd">
<!-- Generated by graphviz version 2.44.1 (20200629.0846)
 -->
<!-- Title: my architecture Pages: 1 -->
<svg width="1639pt" height="1650pt"
 viewBox="576.00 576.00 1063.00 1074.00" xmlns="http://www.w3.org/2000/svg" xmlns:xlink="http://www.w3.org/1999/xlink">
<g id="graph0" class="graph" transform="scale(1 1) rotate(0) translate(648 1002)">
<title>my architecture</title>
<polygon fill="white" stroke="transparent" points="-72,72 -72,-426 415,-426 415,72 -72,72"/>
<text text-anchor="middle" x="60" y="-338" font-family="Sans-Serif" font-size="15.00" fill="#2d3436">my architecture</text>
<g id="clust1" class="cluster">
<title>cluster_azure</title>
<path fill="white" stroke="black" d="M20,-8C20,-8 323,-8 323,-8 329,-8 335,-14 335,-20 335,-20 335,-309 335,-309 335,-315 329,-321 323,-321 323,-321 20,-321 20,-321 14,-321 8,-315 8,-309 8,-309 8,-20 8,-20 8,-14 14,-8 20,-8"/>
<text text-anchor="middle" x="35" y="-305" font-family="Sans-Serif" font-size="15.00" fill="#2d3436">azure</text>
</g>
<g id="clust2" class="cluster">
<title>cluster_subscription</title>
<path fill="white" stroke="black" d="M194,-16C194,-16 315,-16 315,-16 321,-16 327,-22 327,-28 327,-28 327,-276 327,-276 327,-282 321,-288 315,-288 315,-288 194,-288 194,-288 188,-288 182,-282 182,-276 182,-276 182,-28 182,-28 182,-22 188,-16 194,-16"/>
<text text-anchor="middle" x="230" y="-272" font-family="Sans-Serif" font-size="15.00" fill="#2d3436">subscription</text>
</g>
<g id="clust3" class="cluster">
<title>cluster_resource group</title>
<path fill="white" stroke="black" d="M202,-24C202,-24 307,-24 307,-24 313,-24 319,-30 319,-36 319,-36 319,-243 319,-243 319,-249 313,-255 307,-255 307,-255 202,-255 202,-255 196,-255 190,-249 190,-243 190,-243 190,-36 190,-36 190,-30 196,-24 202,-24"/>
<text text-anchor="middle" x="249" y="-239" font-family="Sans-Serif" font-size="15.00" fill="#2d3436">resource group</text>
</g>
<g id="clust4" class="cluster">
<title>cluster_virtual network</title>
<path fill="white" stroke="black" d="M210,-32C210,-32 299,-32 299,-32 305,-32 311,-38 311,-44 311,-44 311,-210 311,-210 311,-216 305,-222 299,-222 299,-222 210,-222 210,-222 204,-222 198,-216 198,-210 198,-210 198,-44 198,-44 198,-38 204,-32 210,-32"/>
<text text-anchor="middle" x="254.5" y="-206" font-family="Sans-Serif" font-size="15.00" fill="#2d3436">virtual network</text>
</g>
<g id="clust5" class="cluster">
<title>cluster_subnet</title>
<path fill="white" stroke="black" d="M218,-40C218,-40 264,-40 264,-40 270,-40 276,-46 276,-52 276,-52 276,-177 276,-177 276,-183 270,-189 264,-189 264,-189 218,-189 218,-189 212,-189 206,-183 206,-177 206,-177 206,-52 206,-52 206,-46 212,-40 218,-40"/>
<text text-anchor="middle" x="237" y="-173" font-family="Sans-Serif" font-size="15.00" fill="#2d3436">subnet</text>
</g>
<g id="clust6" class="cluster">
<title>cluster_subscription 2</title>
<path fill="white" stroke="black" d="M28,-16C28,-16 162,-16 162,-16 168,-16 174,-22 174,-28 174,-28 174,-276 174,-276 174,-282 168,-288 162,-288 162,-288 28,-288 28,-288 22,-288 16,-282 16,-276 16,-276 16,-28 16,-28 16,-22 22,-16 28,-16"/>
<text text-anchor="middle" x="70.5" y="-272" font-family="Sans-Serif" font-size="15.00" fill="#2d3436">subscription 2</text>
</g>
<g id="clust7" class="cluster">
<title>cluster_resource group 2</title>
<path fill="white" stroke="black" d="M36,-24C36,-24 154,-24 154,-24 160,-24 166,-30 166,-36 166,-36 166,-243 166,-243 166,-249 160,-255 154,-255 154,-255 36,-255 36,-255 30,-255 24,-249 24,-243 24,-243 24,-36 24,-36 24,-30 30,-24 36,-24"/>
<text text-anchor="middle" x="89.5" y="-239" font-family="Sans-Serif" font-size="15.00" fill="#2d3436">resource group 2</text>
</g>
<g id="clust8" class="cluster">
<title>cluster_virtual network 2</title>
<path fill="white" stroke="black" d="M44,-32C44,-32 146,-32 146,-32 152,-32 158,-38 158,-44 158,-44 158,-210 158,-210 158,-216 152,-222 146,-222 146,-222 44,-222 44,-222 38,-222 32,-216 32,-210 32,-210 32,-44 32,-44 32,-38 38,-32 44,-32"/>
<text text-anchor="middle" x="95" y="-206" font-family="Sans-Serif" font-size="15.00" fill="#2d3436">virtual network 2</text>
</g>
<g id="clust9" class="cluster">
<title>cluster_subnet 2</title>
<path fill="white" stroke="black" d="M52,-40C52,-40 102,-40 102,-40 108,-40 114,-46 114,-52 114,-52 114,-177 114,-177 114,-183 108,-189 102,-189 102,-189 52,-189 52,-189 46,-189 40,-183 40,-177 40,-177 40,-52 40,-52 40,-46 46,-40 52,-40"/>
<text text-anchor="middle" x="77" y="-173" font-family="Sans-Serif" font-size="15.00" fill="#2d3436">subnet 2</text>
</g>
<!-- 8e5206ded1f945f0b6426d36b7a1e1a9 -->
<g id="node1" class="node">
<title>8e5206ded1f945f0b6426d36b7a1e1a9</title>
<path fill="none" stroke="white" d="M256,-156C256,-156 226,-156 226,-156 220,-156 214,-150 214,-144 214,-144 214,-60 214,-60 214,-54 220,-48 226,-48 226,-48 256,-48 256,-48 262,-48 268,-54 268,-60 268,-60 268,-144 268,-144 268,-150 262,-156 256,-156"/>
<image xlink:href="/Users/justinoconnor/Code/Github/architectures/icons/azure/compute/virtual-machine.png" width="54px" height="54px" preserveAspectRatio="xMinYMin meet" x="214" y="-129"/>
<text text-anchor="middle" x="241" y="-51.6" font-family="Sans-Serif" font-size="13.00" fill="#2d3436">vm</text>
</g>
<!-- 11c453b95fb04aa08819578998810e4b -->
<g id="node2" class="node">
<title>11c453b95fb04aa08819578998810e4b</title>
<path fill="none" stroke="white" d="M90,-156C90,-156 60,-156 60,-156 54,-156 48,-150 48,-144 48,-144 48,-60 48,-60 48,-54 54,-48 60,-48 60,-48 90,-48 90,-48 96,-48 102,-54 102,-60 102,-60 102,-144 102,-144 102,-150 96,-156 90,-156"/>
<image xlink:href="/Users/justinoconnor/Code/Github/architectures/icons/azure/compute/virtual-machine.png" width="54px" height="54px" preserveAspectRatio="xMinYMin meet" x="48" y="-129"/>
<text text-anchor="middle" x="75" y="-51.6" font-family="Sans-Serif" font-size="13.00" fill="#2d3436">vm2</text>
</g>
</g>
</svg>
